<mxfile host="app.diagrams.net" modified="2021-11-06T08:51:57.852Z" agent="5.0 (Windows NT 10.0; Win64; x64) AppleWebKit/537.36 (KHTML, like Gecko) Chrome/95.0.4638.69 Safari/537.36" etag="spVSZ-LemON8GClU7rWs" version="15.7.0" type="github">
  <diagram id="bUP1jSXvwaa7OGz0BlRG" name="Page-1">
    <mxGraphModel dx="1038" dy="547" grid="1" gridSize="10" guides="1" tooltips="1" connect="1" arrows="1" fold="1" page="1" pageScale="1" pageWidth="850" pageHeight="1100" math="0" shadow="0">
      <root>
        <mxCell id="0" />
        <mxCell id="1" parent="0" />
        <mxCell id="I5rTWW0ko5iJizgBPeV_-2" style="edgeStyle=orthogonalEdgeStyle;rounded=0;orthogonalLoop=1;jettySize=auto;html=1;" edge="1" parent="1" source="I5rTWW0ko5iJizgBPeV_-1" target="I5rTWW0ko5iJizgBPeV_-8">
          <mxGeometry relative="1" as="geometry">
            <mxPoint x="230" y="55" as="targetPoint" />
          </mxGeometry>
        </mxCell>
        <mxCell id="I5rTWW0ko5iJizgBPeV_-1" value="Патник&lt;br&gt;" style="shape=umlActor;verticalLabelPosition=bottom;verticalAlign=top;html=1;" vertex="1" parent="1">
          <mxGeometry x="50" y="20" width="90" height="70" as="geometry" />
        </mxCell>
        <mxCell id="I5rTWW0ko5iJizgBPeV_-10" style="edgeStyle=orthogonalEdgeStyle;rounded=0;orthogonalLoop=1;jettySize=auto;html=1;exitX=1;exitY=0.5;exitDx=0;exitDy=0;" edge="1" parent="1" source="I5rTWW0ko5iJizgBPeV_-8" target="I5rTWW0ko5iJizgBPeV_-11">
          <mxGeometry relative="1" as="geometry">
            <mxPoint x="450" y="55" as="targetPoint" />
          </mxGeometry>
        </mxCell>
        <mxCell id="I5rTWW0ko5iJizgBPeV_-8" value="Резервација на авионски билет" style="ellipse;whiteSpace=wrap;html=1;" vertex="1" parent="1">
          <mxGeometry x="250" y="15" width="120" height="80" as="geometry" />
        </mxCell>
        <mxCell id="I5rTWW0ko5iJizgBPeV_-9" value="&amp;lt;&amp;lt;include&amp;gt;&amp;gt;" style="text;html=1;strokeColor=none;fillColor=none;align=center;verticalAlign=middle;whiteSpace=wrap;rounded=0;" vertex="1" parent="1">
          <mxGeometry x="170" y="20" width="60" height="30" as="geometry" />
        </mxCell>
        <mxCell id="I5rTWW0ko5iJizgBPeV_-13" value="" style="edgeStyle=orthogonalEdgeStyle;rounded=0;orthogonalLoop=1;jettySize=auto;html=1;" edge="1" parent="1" source="I5rTWW0ko5iJizgBPeV_-11" target="I5rTWW0ko5iJizgBPeV_-12">
          <mxGeometry relative="1" as="geometry" />
        </mxCell>
        <mxCell id="I5rTWW0ko5iJizgBPeV_-11" value="Внес на почетна и крајна дестинација" style="ellipse;whiteSpace=wrap;html=1;" vertex="1" parent="1">
          <mxGeometry x="450" y="15" width="140" height="80" as="geometry" />
        </mxCell>
        <mxCell id="I5rTWW0ko5iJizgBPeV_-15" value="" style="edgeStyle=orthogonalEdgeStyle;rounded=0;orthogonalLoop=1;jettySize=auto;html=1;" edge="1" parent="1" source="I5rTWW0ko5iJizgBPeV_-12" target="I5rTWW0ko5iJizgBPeV_-14">
          <mxGeometry relative="1" as="geometry" />
        </mxCell>
        <mxCell id="I5rTWW0ko5iJizgBPeV_-12" value="Избор на посакуван лет" style="ellipse;whiteSpace=wrap;html=1;" vertex="1" parent="1">
          <mxGeometry x="670" y="15" width="140" height="80" as="geometry" />
        </mxCell>
        <mxCell id="I5rTWW0ko5iJizgBPeV_-23" value="" style="edgeStyle=orthogonalEdgeStyle;rounded=0;orthogonalLoop=1;jettySize=auto;html=1;" edge="1" parent="1" source="I5rTWW0ko5iJizgBPeV_-14" target="I5rTWW0ko5iJizgBPeV_-22">
          <mxGeometry relative="1" as="geometry" />
        </mxCell>
        <mxCell id="I5rTWW0ko5iJizgBPeV_-14" value="Внесување лични податоци" style="ellipse;whiteSpace=wrap;html=1;" vertex="1" parent="1">
          <mxGeometry x="900" y="25" width="140" height="60" as="geometry" />
        </mxCell>
        <mxCell id="I5rTWW0ko5iJizgBPeV_-16" value="&amp;lt;&amp;lt;include&amp;gt;&amp;gt;" style="text;html=1;strokeColor=none;fillColor=none;align=center;verticalAlign=middle;whiteSpace=wrap;rounded=0;" vertex="1" parent="1">
          <mxGeometry x="380" y="20" width="60" height="30" as="geometry" />
        </mxCell>
        <mxCell id="I5rTWW0ko5iJizgBPeV_-17" value="&amp;lt;&amp;lt;include&amp;gt;&amp;gt;" style="text;html=1;strokeColor=none;fillColor=none;align=center;verticalAlign=middle;whiteSpace=wrap;rounded=0;" vertex="1" parent="1">
          <mxGeometry x="820" y="20" width="60" height="30" as="geometry" />
        </mxCell>
        <mxCell id="I5rTWW0ko5iJizgBPeV_-18" value="&amp;lt;&amp;lt;include&amp;gt;&amp;gt;" style="text;html=1;strokeColor=none;fillColor=none;align=center;verticalAlign=middle;whiteSpace=wrap;rounded=0;" vertex="1" parent="1">
          <mxGeometry x="600" y="30" width="60" height="30" as="geometry" />
        </mxCell>
        <mxCell id="I5rTWW0ko5iJizgBPeV_-21" value="Патник&lt;br&gt;" style="shape=umlActor;verticalLabelPosition=bottom;verticalAlign=top;html=1;" vertex="1" parent="1">
          <mxGeometry x="30" y="280" width="90" height="90" as="geometry" />
        </mxCell>
        <mxCell id="I5rTWW0ko5iJizgBPeV_-22" value="Крај на регистрација&lt;br&gt;" style="ellipse;whiteSpace=wrap;html=1;" vertex="1" parent="1">
          <mxGeometry x="1110" y="25" width="120" height="60" as="geometry" />
        </mxCell>
      </root>
    </mxGraphModel>
  </diagram>
</mxfile>
